<svg width="577" height="150" viewBox="0 0 577 150" fill="none" xmlns="http://www.w3.org/2000/svg">
<g clip-path="url(#clip0_10_11)">
<path d="M24.375 75C24.375 64.3125 33.0625 55.625 43.75 55.625H68.75V43.75H43.75C26.5 43.75 12.5 57.75 12.5 75C12.5 92.25 26.5 106.25 43.75 106.25H68.75V94.375H43.75C33.0625 94.375 24.375 85.6875 24.375 75ZM50 81.25H100V68.75H50V81.25ZM106.25 43.75H81.25V55.625H106.25C116.938 55.625 125.625 64.3125 125.625 75C125.625 85.6875 116.938 94.375 106.25 94.375H81.25V106.25H106.25C123.5 106.25 137.5 92.25 137.5 75C137.5 57.75 123.5 43.75 106.25 43.75Z" fill="#5A31FF"/>
</g>
<path d="M220.5 95.1875C220.5 93.5625 220.25 92.1042 219.75 90.8125C219.292 89.4792 218.417 88.2708 217.125 87.1875C215.833 86.0625 214.021 84.9583 211.688 83.875C209.354 82.7917 206.333 81.6667 202.625 80.5C198.5 79.1667 194.583 77.6667 190.875 76C187.208 74.3333 183.958 72.3958 181.125 70.1875C178.333 67.9375 176.125 65.3333 174.5 62.375C172.917 59.4167 172.125 55.9792 172.125 52.0625C172.125 48.2708 172.958 44.8333 174.625 41.75C176.292 38.625 178.625 35.9583 181.625 33.75C184.625 31.5 188.167 29.7708 192.25 28.5625C196.375 27.3542 200.896 26.75 205.812 26.75C212.521 26.75 218.375 27.9583 223.375 30.375C228.375 32.7917 232.25 36.1042 235 40.3125C237.792 44.5208 239.188 49.3333 239.188 54.75H220.562C220.562 52.0833 220 49.75 218.875 47.75C217.792 45.7083 216.125 44.1042 213.875 42.9375C211.667 41.7708 208.875 41.1875 205.5 41.1875C202.25 41.1875 199.542 41.6875 197.375 42.6875C195.208 43.6458 193.583 44.9583 192.5 46.625C191.417 48.25 190.875 50.0833 190.875 52.125C190.875 53.6667 191.25 55.0625 192 56.3125C192.792 57.5625 193.958 58.7292 195.5 59.8125C197.042 60.8958 198.938 61.9167 201.188 62.875C203.438 63.8333 206.042 64.7708 209 65.6875C213.958 67.1875 218.312 68.875 222.062 70.75C225.854 72.625 229.021 74.7292 231.562 77.0625C234.104 79.3958 236.021 82.0417 237.312 85C238.604 87.9583 239.25 91.3125 239.25 95.0625C239.25 99.0208 238.479 102.562 236.938 105.688C235.396 108.812 233.167 111.458 230.25 113.625C227.333 115.792 223.854 117.438 219.812 118.562C215.771 119.688 211.25 120.25 206.25 120.25C201.75 120.25 197.312 119.667 192.938 118.5C188.562 117.292 184.583 115.479 181 113.062C177.458 110.646 174.625 107.562 172.5 103.812C170.375 100.062 169.312 95.625 169.312 90.5H188.125C188.125 93.3333 188.562 95.7292 189.438 97.6875C190.312 99.6458 191.542 101.229 193.125 102.438C194.75 103.646 196.667 104.521 198.875 105.062C201.125 105.604 203.583 105.875 206.25 105.875C209.5 105.875 212.167 105.417 214.25 104.5C216.375 103.583 217.938 102.312 218.938 100.688C219.979 99.0625 220.5 97.2292 220.5 95.1875ZM268.438 23V119H250.438V23H268.438ZM265.875 82.8125H260.938C260.979 78.1042 261.604 73.7708 262.812 69.8125C264.021 65.8125 265.75 62.3542 268 59.4375C270.25 56.4792 272.938 54.1875 276.062 52.5625C279.229 50.9375 282.729 50.125 286.562 50.125C289.896 50.125 292.917 50.6042 295.625 51.5625C298.375 52.4792 300.729 53.9792 302.688 56.0625C304.688 58.1042 306.229 60.7917 307.312 64.125C308.396 67.4583 308.938 71.5 308.938 76.25V119H290.812V76.125C290.812 73.125 290.375 70.7708 289.5 69.0625C288.667 67.3125 287.438 66.0833 285.812 65.375C284.229 64.625 282.271 64.25 279.938 64.25C277.354 64.25 275.146 64.7292 273.312 65.6875C271.521 66.6458 270.083 67.9792 269 69.6875C267.917 71.3542 267.125 73.3125 266.625 75.5625C266.125 77.8125 265.875 80.2292 265.875 82.8125ZM319.75 85.875V84.5625C319.75 79.6042 320.458 75.0417 321.875 70.875C323.292 66.6667 325.354 63.0208 328.062 59.9375C330.771 56.8542 334.104 54.4583 338.062 52.75C342.021 51 346.562 50.125 351.688 50.125C356.812 50.125 361.375 51 365.375 52.75C369.375 54.4583 372.729 56.8542 375.438 59.9375C378.188 63.0208 380.271 66.6667 381.688 70.875C383.104 75.0417 383.812 79.6042 383.812 84.5625V85.875C383.812 90.7917 383.104 95.3542 381.688 99.5625C380.271 103.729 378.188 107.375 375.438 110.5C372.729 113.583 369.396 115.979 365.438 117.688C361.479 119.396 356.938 120.25 351.812 120.25C346.688 120.25 342.125 119.396 338.125 117.688C334.167 115.979 330.812 113.583 328.062 110.5C325.354 107.375 323.292 103.729 321.875 99.5625C320.458 95.3542 319.75 90.7917 319.75 85.875ZM337.75 84.5625V85.875C337.75 88.7083 338 91.3542 338.5 93.8125C339 96.2708 339.792 98.4375 340.875 100.312C342 102.146 343.458 103.583 345.25 104.625C347.042 105.667 349.229 106.188 351.812 106.188C354.312 106.188 356.458 105.667 358.25 104.625C360.042 103.583 361.479 102.146 362.562 100.312C363.646 98.4375 364.438 96.2708 364.938 93.8125C365.479 91.3542 365.75 88.7083 365.75 85.875V84.5625C365.75 81.8125 365.479 79.2292 364.938 76.8125C364.438 74.3542 363.625 72.1875 362.5 70.3125C361.417 68.3958 359.979 66.8958 358.188 65.8125C356.396 64.7292 354.229 64.1875 351.688 64.1875C349.146 64.1875 346.979 64.7292 345.188 65.8125C343.438 66.8958 342 68.3958 340.875 70.3125C339.792 72.1875 339 74.3542 338.5 76.8125C338 79.2292 337.75 81.8125 337.75 84.5625ZM412.875 66.125V119H394.875V51.375H411.812L412.875 66.125ZM433.25 50.9375L432.938 67.625C432.062 67.5 431 67.3958 429.75 67.3125C428.542 67.1875 427.438 67.125 426.438 67.125C423.896 67.125 421.688 67.4583 419.812 68.125C417.979 68.75 416.438 69.6875 415.188 70.9375C413.979 72.1875 413.062 73.7083 412.438 75.5C411.854 77.2917 411.521 79.3333 411.438 81.625L407.812 80.5C407.812 76.125 408.25 72.1042 409.125 68.4375C410 64.7292 411.271 61.5 412.938 58.75C414.646 56 416.729 53.875 419.188 52.375C421.646 50.875 424.458 50.125 427.625 50.125C428.625 50.125 429.646 50.2083 430.688 50.375C431.729 50.5 432.583 50.6875 433.25 50.9375ZM460.75 23V119H442.688V23H460.75ZM508.75 51.375V64.125H469.375V51.375H508.75ZM479.125 34.6875H497.125V98.625C497.125 100.583 497.375 102.083 497.875 103.125C498.417 104.167 499.208 104.896 500.25 105.312C501.292 105.688 502.604 105.875 504.188 105.875C505.312 105.875 506.312 105.833 507.188 105.75C508.104 105.625 508.875 105.5 509.5 105.375L509.562 118.625C508.021 119.125 506.354 119.521 504.562 119.812C502.771 120.104 500.792 120.25 498.625 120.25C494.667 120.25 491.208 119.604 488.25 118.312C485.333 116.979 483.083 114.854 481.5 111.938C479.917 109.021 479.125 105.188 479.125 100.438V34.6875ZM539.062 111.375L557 51.375H576.312L549.125 129.188C548.542 130.896 547.75 132.729 546.75 134.688C545.792 136.646 544.479 138.5 542.812 140.25C541.188 142.042 539.125 143.5 536.625 144.625C534.167 145.75 531.146 146.312 527.562 146.312C525.854 146.312 524.458 146.208 523.375 146C522.292 145.792 521 145.5 519.5 145.125V131.938C519.958 131.938 520.438 131.938 520.938 131.938C521.438 131.979 521.917 132 522.375 132C524.75 132 526.688 131.729 528.188 131.188C529.688 130.646 530.896 129.812 531.812 128.688C532.729 127.604 533.458 126.188 534 124.438L539.062 111.375ZM531.562 51.375L546.25 100.375L548.812 119.438L536.562 120.75L512.25 51.375H531.562Z" fill="#5A31FF"/>
<defs>
<clipPath id="clip0_10_11">
<rect width="150" height="150" fill="white"/>
</clipPath>
</defs>
</svg>
