<svg width="170" height="170" viewBox="0 0 170 170" fill="none" xmlns="http://www.w3.org/2000/svg">
<rect width="170" height="170" rx="66" fill="#5A31FF"/>
<path d="M101 105.188C101 103.562 100.75 102.104 100.25 100.812C99.7917 99.4792 98.9167 98.2708 97.625 97.1875C96.3333 96.0625 94.5208 94.9583 92.1875 93.875C89.8542 92.7917 86.8333 91.6667 83.125 90.5C79 89.1667 75.0833 87.6667 71.375 86C67.7083 84.3333 64.4583 82.3958 61.625 80.1875C58.8333 77.9375 56.625 75.3333 55 72.375C53.4167 69.4167 52.625 65.9792 52.625 62.0625C52.625 58.2708 53.4583 54.8333 55.125 51.75C56.7917 48.625 59.125 45.9583 62.125 43.75C65.125 41.5 68.6667 39.7708 72.75 38.5625C76.875 37.3542 81.3958 36.75 86.3125 36.75C93.0208 36.75 98.875 37.9583 103.875 40.375C108.875 42.7917 112.75 46.1042 115.5 50.3125C118.292 54.5208 119.688 59.3333 119.688 64.75H101.062C101.062 62.0833 100.5 59.75 99.375 57.75C98.2917 55.7083 96.625 54.1042 94.375 52.9375C92.1667 51.7708 89.375 51.1875 86 51.1875C82.75 51.1875 80.0417 51.6875 77.875 52.6875C75.7083 53.6458 74.0833 54.9583 73 56.625C71.9167 58.25 71.375 60.0833 71.375 62.125C71.375 63.6667 71.75 65.0625 72.5 66.3125C73.2917 67.5625 74.4583 68.7292 76 69.8125C77.5417 70.8958 79.4375 71.9167 81.6875 72.875C83.9375 73.8333 86.5417 74.7708 89.5 75.6875C94.4583 77.1875 98.8125 78.875 102.562 80.75C106.354 82.625 109.521 84.7292 112.062 87.0625C114.604 89.3958 116.521 92.0417 117.812 95C119.104 97.9583 119.75 101.312 119.75 105.062C119.75 109.021 118.979 112.562 117.438 115.688C115.896 118.812 113.667 121.458 110.75 123.625C107.833 125.792 104.354 127.438 100.312 128.562C96.2708 129.688 91.75 130.25 86.75 130.25C82.25 130.25 77.8125 129.667 73.4375 128.5C69.0625 127.292 65.0833 125.479 61.5 123.062C57.9583 120.646 55.125 117.562 53 113.812C50.875 110.062 49.8125 105.625 49.8125 100.5H68.625C68.625 103.333 69.0625 105.729 69.9375 107.688C70.8125 109.646 72.0417 111.229 73.625 112.438C75.25 113.646 77.1667 114.521 79.375 115.062C81.625 115.604 84.0833 115.875 86.75 115.875C90 115.875 92.6667 115.417 94.75 114.5C96.875 113.583 98.4375 112.312 99.4375 110.688C100.479 109.062 101 107.229 101 105.188Z" fill="white"/>
</svg>
