<svg width="96" height="96" viewBox="0 0 96 96" fill="none" xmlns="http://www.w3.org/2000/svg">
<g clip-path="url(#clip0_107_20)">
<path d="M82 12L81.36 12.12L60 20.4L36 12L13.44 19.6C12.6 19.88 12 20.6 12 21.52V82C12 83.12 12.88 84 14 84L14.64 83.88L36 75.6L60 84L82.56 76.4C83.4 76.12 84 75.4 84 74.48V14C84 12.88 83.12 12 82 12ZM40 21.88L56 27.48V74.12L40 68.52V21.88ZM20 25.84L32 21.8V68.6L20 73.24V25.84ZM76 70.16L64 74.2V27.44L76 22.8V70.16Z" fill="black"/>
</g>
<defs>
<clipPath id="clip0_107_20">
<rect width="96" height="96" fill="white"/>
</clipPath>
</defs>
</svg>
