<svg width="96" height="96" viewBox="0 0 96 96" fill="none" xmlns="http://www.w3.org/2000/svg">
<g clip-path="url(#clip0_103_8)">
<path d="M92 32C92 36.4 88.4 40 84 40C83.28 40 82.6 39.92 81.96 39.72L67.72 53.92C67.92 54.56 68 55.28 68 56C68 60.4 64.4 64 60 64C55.6 64 52 60.4 52 56C52 55.28 52.08 54.56 52.28 53.92L42.08 43.72C41.44 43.92 40.72 44 40 44C39.28 44 38.56 43.92 37.92 43.72L19.72 61.96C19.92 62.6 20 63.28 20 64C20 68.4 16.4 72 12 72C7.6 72 4 68.4 4 64C4 59.6 7.6 56 12 56C12.72 56 13.4 56.08 14.04 56.28L32.28 38.08C32.08 37.44 32 36.72 32 36C32 31.6 35.6 28 40 28C44.4 28 48 31.6 48 36C48 36.72 47.92 37.44 47.72 38.08L57.92 48.28C58.56 48.08 59.28 48 60 48C60.72 48 61.44 48.08 62.08 48.28L76.28 34.04C76.08 33.4 76 32.72 76 32C76 27.6 79.6 24 84 24C88.4 24 92 27.6 92 32Z" fill="black"/>
</g>
<defs>
<clipPath id="clip0_103_8">
<rect width="96" height="96" fill="white"/>
</clipPath>
</defs>
</svg>
