<svg width="96" height="96" viewBox="0 0 96 96" fill="none" xmlns="http://www.w3.org/2000/svg">
<g clip-path="url(#clip0_107_26)">
<path d="M48 24C63.16 24 76.68 32.52 83.28 46C80.92 50.88 77.6 55.08 73.64 58.48L79.28 64.12C84.84 59.2 89.24 53.04 92 46C85.08 28.44 68 16 48 16C42.92 16 38.04 16.8 33.44 18.28L40.04 24.88C42.64 24.36 45.28 24 48 24ZM43.72 28.56L52 36.84C54.28 37.84 56.12 39.68 57.12 41.96L65.4 50.24C65.72 48.88 65.96 47.44 65.96 45.96C66 36.04 57.92 28 48 28C46.52 28 45.12 28.2 43.72 28.56ZM8.04 15.48L18.76 26.2C12.24 31.32 7.08 38.12 4 46C10.92 63.56 28 76 48 76C54.08 76 59.92 74.84 65.28 72.72L78.96 86.4L84.6 80.76L13.68 9.79999L8.04 15.48ZM38.04 45.48L48.48 55.92C48.32 55.96 48.16 56 48 56C42.48 56 38 51.52 38 46C38 45.8 38.04 45.68 38.04 45.48V45.48ZM24.44 31.88L31.44 38.88C30.52 41.08 30 43.48 30 46C30 55.92 38.08 64 48 64C50.52 64 52.92 63.48 55.08 62.56L59 66.48C55.48 67.44 51.8 68 48 68C32.84 68 19.32 59.48 12.72 46C15.52 40.28 19.6 35.56 24.44 31.88Z" fill="black"/>
</g>
<defs>
<clipPath id="clip0_107_26">
<rect width="96" height="96" fill="white"/>
</clipPath>
</defs>
</svg>
